<svg xmlns="http://www.w3.org/2000/svg" width="96.624" height="12.798" viewBox="0 0 96.624 12.798">
  <path id="Path_97" data-name="Path 97" d="M.63-12.636H14.58v3.51H4.824V-8.01h9.144v3.366H4.824V-3.51H14.58V0H.63ZM24.228,0H15.534V-12.6h8.64a15.685,15.685,0,0,1,2.178.135,7.87,7.87,0,0,1,1.926.54,4.733,4.733,0,0,1,1.62,1.08,4.988,4.988,0,0,1,1.053,1.827,8.2,8.2,0,0,1,.4,2.718,6.937,6.937,0,0,1-.432,2.52A5.071,5.071,0,0,1,29.79-1.971,6.1,6.1,0,0,1,28.134-.819a7.662,7.662,0,0,1-1.917.639A10.8,10.8,0,0,1,24.228,0ZM23.94-3.438a3.457,3.457,0,0,0,1.692-.387,2.431,2.431,0,0,0,1.026-1.017,3.1,3.1,0,0,0,.324-1.44,2.929,2.929,0,0,0-.729-2.079,3.027,3.027,0,0,0-2.313-.783H19.728v5.706ZM40.356,0A16.923,16.923,0,0,1,35.64-.558a4.057,4.057,0,0,1-2.61-1.926,7.584,7.584,0,0,1-.7-2.547,42.548,42.548,0,0,1-.18-4.581l.018-3.024h4.428v5.652a7.674,7.674,0,0,0,.054.963,3.341,3.341,0,0,0,.279.927,2.3,2.3,0,0,0,.621.837,3.224,3.224,0,0,0,1.116.558,5.728,5.728,0,0,0,1.7.225A5.638,5.638,0,0,0,42.057-3.7a3.014,3.014,0,0,0,1.08-.549,2.258,2.258,0,0,0,.585-.837,3.365,3.365,0,0,0,.261-.927,9.131,9.131,0,0,0,.045-.972v-5.652h4.428v3.024a40.519,40.519,0,0,1-.162,4.581,7.584,7.584,0,0,1-.7,2.547,3.454,3.454,0,0,1-1.071,1.215A5.261,5.261,0,0,1,44.856-.5,12.814,12.814,0,0,1,42.8-.117,22.933,22.933,0,0,1,40.356,0Zm17.6-12.744a17.941,17.941,0,0,1,4.086.4,7.046,7.046,0,0,1,2.7,1.17A4.624,4.624,0,0,1,66.186-9.4a5.693,5.693,0,0,1,.45,2.34h-4.3a2.406,2.406,0,0,0-.063-.234,2.06,2.06,0,0,0-.315-.5,2.766,2.766,0,0,0-.7-.63,4.612,4.612,0,0,0-1.305-.5,8.159,8.159,0,0,0-2.025-.225,8.73,8.73,0,0,0-1.791.162,4.245,4.245,0,0,0-1.206.414,2.065,2.065,0,0,0-.7.639,2.367,2.367,0,0,0-.351.756,3.459,3.459,0,0,0-.09.819,2.939,2.939,0,0,0,.2,1.116,2.442,2.442,0,0,0,.648.891,3.029,3.029,0,0,0,1.278.621,8.1,8.1,0,0,0,2.016.216,10.959,10.959,0,0,0,2.124-.18,4.264,4.264,0,0,0,1.314-.432,3.088,3.088,0,0,0,.657-.513,1.021,1.021,0,0,0,.279-.441l.036-.18h4.3A5.555,5.555,0,0,1,66.4-3.591a4.193,4.193,0,0,1-.828,1.449,4.731,4.731,0,0,1-1.539,1.17,9.5,9.5,0,0,1-2.457.747,19.533,19.533,0,0,1-3.51.279,19.256,19.256,0,0,1-4.1-.369,6.424,6.424,0,0,1-2.655-1.17A4.51,4.51,0,0,1,49.878-3.42a7.878,7.878,0,0,1-.432-2.79,7.659,7.659,0,0,1,.549-3.051A4.7,4.7,0,0,1,51.642-11.3,7.351,7.351,0,0,1,54.288-12.4,17.219,17.219,0,0,1,57.96-12.744Zm20.106.144L83.736,0h-4.86l-.954-2.124H71.676L70.722,0H65.9L71.55-12.6Zm-4.9,6.84h3.258L74.79-9.072Zm7.4-6.876H97.254V-8.46H91.008V0H86.832V-8.46H80.568Z" transform="translate(-0.63 12.744)"/>
</svg>
