<svg xmlns="http://www.w3.org/2000/svg" width="74.668" height="52" viewBox="0 0 74.668 52">
  <g id="Group_22" data-name="Group 22" transform="translate(-777.654 -846.417)">
    <g id="Group_6" data-name="Group 6" transform="translate(791.071 846.417)">
      <circle id="Ellipse_12" data-name="Ellipse 12" cx="24.895" cy="24.895" r="24.895" transform="translate(1.105 1.105)" fill="#eae9e5"/>
      <path id="Path_80" data-name="Path 80" d="M883.558,898.417a26,26,0,1,1,26-26A26.029,26.029,0,0,1,883.558,898.417Zm0-49.771a23.771,23.771,0,1,0,23.771,23.771A23.8,23.8,0,0,0,883.558,848.646Z" transform="translate(-857.558 -846.417)" fill="#1d1d1b"/>
    </g>
    <g id="Group_12" data-name="Group 12" transform="translate(777.654 858.465)">
      <g id="Group_9" data-name="Group 9" transform="translate(0 0)">
        <g id="Group_8" data-name="Group 8">
          <g id="Group_7" data-name="Group 7">
            <path id="Path_82" data-name="Path 82" d="M852.411,933.32H793.555l-9.318-4.334,9.318-4.234h58.856a4.284,4.284,0,0,1,4.284,4.284h0A4.284,4.284,0,0,1,852.411,933.32Z" transform="translate(-783.132 -923.647)" fill="#fff"/>
            <path id="Path_83" data-name="Path 83" d="M846.933,928.948H788.077a1.105,1.105,0,0,1-.466-.1l-9.318-4.333a1.106,1.106,0,0,1,.009-2.009l9.318-4.234a1.106,1.106,0,0,1,.457-.1h58.856a5.389,5.389,0,0,1,0,10.778Zm-58.611-2.211h58.611a3.178,3.178,0,0,0,0-6.357H788.316l-6.911,3.141Z" transform="translate(-777.654 -918.169)" fill="#1d1d1b"/>
          </g>
        </g>
        <path id="Path_84" data-name="Path 84" d="M839.729,975.778" transform="translate(-829.306 -966.105)" fill="#fff" stroke="#1d1d1b" stroke-linejoin="round" stroke-width="13.166"/>
        <path id="Path_85" data-name="Path 85" d="M839.729,924.752" transform="translate(-829.306 -923.647)" fill="#fff" stroke="#1d1d1b" stroke-linejoin="round" stroke-width="13.166"/>
      </g>
      <g id="Group_10" data-name="Group 10" transform="translate(10.423 4.284)">
        <line id="Line_7" data-name="Line 7" x1="63.14" transform="translate(0 1.105)" fill="#fff"/>
        <rect id="Rectangle_28" data-name="Rectangle 28" width="63.14" height="2.211" fill="#1d1d1b"/>
      </g>
      <g id="Group_11" data-name="Group 11" transform="translate(9.318 1.105)">
        <line id="Line_8" data-name="Line 8" y2="8.568" transform="translate(1.105)" fill="#fff"/>
        <rect id="Rectangle_29" data-name="Rectangle 29" width="2.211" height="8.568" transform="translate(0 0)" fill="#1d1d1b"/>
      </g>
    </g>
    <g id="Group_19" data-name="Group 19" transform="translate(802.766 855.174)">
      <g id="Group_13" data-name="Group 13" transform="translate(0.002 10.384)">
        <path id="Path_86" data-name="Path 86" d="M933.806,967.525v7.949a12.986,12.986,0,1,0,25.972,0v-7.949a.533.533,0,0,0-.532-.532H934.338A.53.53,0,0,0,933.806,967.525Z" transform="translate(-932.701 -965.888)" fill="#fff"/>
        <path id="Path_87" data-name="Path 87" d="M941.313,984.089A14.107,14.107,0,0,1,927.223,970v-7.949a1.639,1.639,0,0,1,1.637-1.637h24.909a1.639,1.639,0,0,1,1.637,1.637V970a14.092,14.092,0,0,1-14.093,14.093Zm-11.879-21.468V970a11.881,11.881,0,1,0,23.761,0v-7.375Z" transform="translate(-927.223 -960.41)" fill="#1d1d1b"/>
      </g>
      <g id="Group_14" data-name="Group 14" transform="translate(19.479 0)">
        <rect id="Rectangle_30" data-name="Rectangle 30" width="6.493" height="15.745" rx="3.247" transform="translate(7.598 16.851) rotate(-180)" fill="#fff"/>
        <path id="Path_88" data-name="Path 88" d="M1047.577,916.525a4.357,4.357,0,0,1-4.352-4.352v-9.252a4.352,4.352,0,1,1,8.7,0v9.252A4.357,4.357,0,0,1,1047.577,916.525Zm0-15.745a2.144,2.144,0,0,0-2.141,2.141v9.252a2.141,2.141,0,1,0,4.282,0v-9.252A2.144,2.144,0,0,0,1047.577,900.78Z" transform="translate(-1043.225 -898.569)" fill="#1d1d1b"/>
      </g>
      <g id="Group_15" data-name="Group 15" transform="translate(12.986 0)">
        <rect id="Rectangle_31" data-name="Rectangle 31" width="6.493" height="15.745" rx="3.247" transform="translate(7.598 16.851) rotate(-180)" fill="#fff"/>
        <path id="Path_89" data-name="Path 89" d="M1008.906,916.525a4.357,4.357,0,0,1-4.352-4.352v-9.252a4.352,4.352,0,0,1,8.7,0v9.252A4.357,4.357,0,0,1,1008.906,916.525Zm0-15.745a2.144,2.144,0,0,0-2.141,2.141v9.252a2.141,2.141,0,1,0,4.282,0v-9.252A2.144,2.144,0,0,0,1008.906,900.78Z" transform="translate(-1004.554 -898.569)" fill="#1d1d1b"/>
      </g>
      <g id="Group_16" data-name="Group 16" transform="translate(6.493 0)">
        <path id="Path_90" data-name="Path 90" d="M975.714,920.9h0a3.247,3.247,0,0,0,3.247-3.246V908.4a3.247,3.247,0,0,0-3.247-3.247h0a3.247,3.247,0,0,0-3.247,3.247v9.252A3.246,3.246,0,0,0,975.714,920.9Z" transform="translate(-971.362 -904.047)" fill="#fff"/>
        <path id="Path_91" data-name="Path 91" d="M970.236,916.525a4.357,4.357,0,0,1-4.352-4.352v-9.252a4.352,4.352,0,1,1,8.7,0v9.252A4.357,4.357,0,0,1,970.236,916.525Zm0-15.745a2.144,2.144,0,0,0-2.141,2.141v9.252a2.141,2.141,0,1,0,4.282,0v-9.252A2.144,2.144,0,0,0,970.236,900.78Z" transform="translate(-965.884 -898.569)" fill="#1d1d1b"/>
      </g>
      <g id="Group_17" data-name="Group 17" transform="translate(0 0)">
        <path id="Path_92" data-name="Path 92" d="M937.043,920.9h0a3.247,3.247,0,0,0,3.247-3.246V908.4a3.247,3.247,0,0,0-3.247-3.247h0A3.247,3.247,0,0,0,933.8,908.4v9.252A3.247,3.247,0,0,0,937.043,920.9Z" transform="translate(-932.691 -904.047)" fill="#fff"/>
        <path id="Path_93" data-name="Path 93" d="M931.565,916.525h0a4.357,4.357,0,0,1-4.352-4.352v-9.252a4.352,4.352,0,0,1,8.7,0v9.252A4.357,4.357,0,0,1,931.565,916.525Zm0-15.745a2.144,2.144,0,0,0-2.141,2.141v9.252a2.141,2.141,0,0,0,4.283,0v-9.252A2.144,2.144,0,0,0,931.565,900.78Z" transform="translate(-927.213 -898.569)" fill="#1d1d1b"/>
      </g>
      <g id="Group_18" data-name="Group 18" transform="translate(7.986 11.82)">
        <path id="Path_94" data-name="Path 94" d="M981.358,979.307a3.753,3.753,0,0,0,3.753,3.753s10.865-.248,10.865,8.049l.147.047a12.938,12.938,0,0,0,3.222-8.563V975.55H985.111A3.755,3.755,0,0,0,981.358,979.307Z" transform="translate(-980.253 -974.445)" fill="#fff"/>
        <path id="Path_95" data-name="Path 95" d="M990.646,986.784a1.1,1.1,0,0,1-.334-.052l-.147-.047a1.105,1.105,0,0,1-.771-1.053,5.716,5.716,0,0,0-1.7-4.315c-2.78-2.717-7.984-2.629-8.038-2.629h-.025a4.86,4.86,0,0,1,0-9.721h14.234a1.105,1.105,0,0,1,1.105,1.105v7.043a14.081,14.081,0,0,1-3.5,9.292A1.105,1.105,0,0,1,990.646,986.784Zm-10.894-10.307c.963,0,6.3.145,9.49,3.26a7.586,7.586,0,0,1,1.981,3.231,11.877,11.877,0,0,0,1.539-5.851v-5.938H979.634a2.65,2.65,0,0,0-.01,5.3Z" transform="translate(-974.775 -968.967)" fill="#1d1d1b"/>
      </g>
      <path id="Path_96" data-name="Path 96" d="M1069.521,1068.226" transform="translate(-1045.626 -1039.739)" fill="#fff" stroke="#1d1d1b" stroke-linejoin="round" stroke-width="13.166"/>
    </g>
  </g>
</svg>
