<svg xmlns="http://www.w3.org/2000/svg" width="67.825" height="10" viewBox="0 0 67.825 10">
  <g id="Stars" transform="translate(-25 -721)">
    <path id="Path_5" data-name="Path 5" d="M373.342,154.334l1.438,2.339,2.708.653a.656.656,0,0,1,.481.786.644.644,0,0,1-.14.269h0l-1.8,2.12.215,2.784a.656.656,0,0,1-.6.7.664.664,0,0,1-.337-.068l-2.536-1.044-2.579,1.062a.651.651,0,0,1-.9-.649h0l.215-2.784-1.8-2.12a.646.646,0,0,1,.072-.918.629.629,0,0,1,.294-.144l2.683-.646,1.46-2.378a.655.655,0,0,1,.9-.215.67.67,0,0,1,.237.255Z" transform="translate(-342.542 567.016)" fill="#c1aa6a" fill-rule="evenodd"/>
    <path id="Path_6" data-name="Path 6" d="M373.342,154.334l1.438,2.339,2.708.653a.656.656,0,0,1,.481.786.644.644,0,0,1-.14.269h0l-1.8,2.12.215,2.784a.656.656,0,0,1-.6.7.664.664,0,0,1-.337-.068l-2.536-1.044-2.579,1.062a.651.651,0,0,1-.9-.649h0l.215-2.784-1.8-2.12a.646.646,0,0,1,.072-.918.629.629,0,0,1,.294-.144l2.683-.646,1.46-2.378a.655.655,0,0,1,.9-.215.67.67,0,0,1,.237.255Z" transform="translate(-328.197 567.016)" fill="#c1aa6a" fill-rule="evenodd"/>
    <path id="Path_7" data-name="Path 7" d="M373.342,154.334l1.438,2.339,2.708.653a.656.656,0,0,1,.481.786.644.644,0,0,1-.14.269h0l-1.8,2.12.215,2.784a.656.656,0,0,1-.6.7.664.664,0,0,1-.337-.068l-2.536-1.044-2.579,1.062a.651.651,0,0,1-.9-.649h0l.215-2.784-1.8-2.12a.646.646,0,0,1,.072-.918.629.629,0,0,1,.294-.144l2.683-.646,1.46-2.378a.655.655,0,0,1,.9-.215.67.67,0,0,1,.237.255Z" transform="translate(-313.852 567.016)" fill="#c1aa6a" fill-rule="evenodd"/>
    <path id="Path_8" data-name="Path 8" d="M373.342,154.334l1.438,2.339,2.708.653a.656.656,0,0,1,.481.786.644.644,0,0,1-.14.269h0l-1.8,2.12.215,2.784a.656.656,0,0,1-.6.7.664.664,0,0,1-.337-.068l-2.536-1.044-2.579,1.062a.651.651,0,0,1-.9-.649h0l.215-2.784-1.8-2.12a.646.646,0,0,1,.072-.918.629.629,0,0,1,.294-.144l2.683-.646,1.46-2.378a.655.655,0,0,1,.9-.215.67.67,0,0,1,.237.255Z" transform="translate(-299.507 567.016)" fill="#d9d6cd" fill-rule="evenodd"/>
    <path id="Path_9" data-name="Path 9" d="M373.342,154.334l1.438,2.339,2.708.653a.656.656,0,0,1,.481.786.644.644,0,0,1-.14.269h0l-1.8,2.12.215,2.784a.656.656,0,0,1-.6.7.664.664,0,0,1-.337-.068l-2.536-1.044-2.579,1.062a.651.651,0,0,1-.9-.649h0l.215-2.784-1.8-2.12a.646.646,0,0,1,.072-.918.629.629,0,0,1,.294-.144l2.683-.646,1.46-2.378a.655.655,0,0,1,.9-.215.67.67,0,0,1,.237.255Z" transform="translate(-285.163 567.016)" fill="#d9d6cd" fill-rule="evenodd"/>
  </g>
</svg>
