<svg id="Layer_1" enable-background="new 0 0 512 512" height="512" viewBox="0 0 512 512" width="512" xmlns="http://www.w3.org/2000/svg"><g><path d="m497 0h-482c-8.284 0-15 6.716-15 15v482c0 8.284 6.716 15 15 15h482c8.284 0 15-6.716 15-15v-482c0-8.284-6.716-15-15-15zm-15 482h-452v-452h452z"/><path d="m146.984 422h218.031c8.284 0 15-6.716 15-15v-60c0-8.284-6.716-15-15-15h-143.031v-227c0-8.284-6.716-15-15-15h-60c-8.284 0-15 6.716-15 15v302c0 8.284 6.716 15 15 15zm15-302h30v227c0 8.284 6.716 15 15 15h143.031v30h-188.031z"/></g></svg>